# xmcd
# 
# Track frame offsets:
#     150
#     20090
#     39166
#     48618
#     64538
#     79905
#     101951
# 
# Disc length: 1578
# 
# Revision: 0
# Processed by: cddbd v1.5.2PL0 Copyright (c) Steve Scherf et al.
# Submitted via: fre:ac v1.0.17
# 
DISCID=58062807
DTITLE=ロマリアクルセイド - メロウ≠メロウ
DYEAR=2011
DGENRE=
TTITLE0=とおいあしたにいるママへ
TTITLE1=HeRo
TTITLE2=メロウメロウ
TTITLE3=雨上がりのIF
TTITLE4=鳥籠の夢
TTITLE5=なみだのあとで
TTITLE6=ユメクイ
EXTD=
EXTT0=
EXTT1=
EXTT2=
EXTT3=
EXTT4=
EXTT5=
EXTT6=
PLAYORDER=
